<?xml version="1.0" standalone="no"?>
<!DOCTYPE svg PUBLIC "-//W3C//DTD SVG 20010904//EN"
 "http://www.w3.org/TR/2001/REC-SVG-20010904/DTD/svg10.dtd">
<svg version="1.0" xmlns="http://www.w3.org/2000/svg"
 width="980.000000pt" height="980.000000pt" viewBox="0 0 980.000000 980.000000"
 preserveAspectRatio="xMidYMid meet">
<metadata>
Created by potrace 1.14, written by Peter Selinger 2001-2017
</metadata>
<g transform="translate(0.000000,980.000000) scale(0.100000,-0.100000)"
fill="#000000" stroke="none">
<path d="M4629 9756 c-2 -2 -49 -7 -104 -11 -55 -3 -111 -8 -125 -10 -14 -2
-50 -7 -80 -10 -30 -4 -64 -8 -75 -10 -11 -1 -45 -6 -75 -10 -30 -4 -111 -18
-180 -32 -69 -13 -136 -27 -150 -29 -14 -3 -33 -7 -42 -10 -9 -3 -27 -7 -40
-10 -77 -18 -102 -25 -186 -48 -178 -49 -386 -125 -652 -237 -79 -33 -338
-166 -455 -234 -546 -315 -1065 -775 -1444 -1280 -109 -144 -255 -365 -309
-465 -14 -25 -28 -47 -31 -50 -18 -14 -198 -377 -256 -515 -20 -49 -43 -103
-50 -120 -95 -225 -216 -664 -264 -950 -29 -175 -30 -184 -36 -250 -3 -33 -8
-69 -10 -80 -11 -52 -20 -283 -20 -500 0 -263 8 -414 31 -585 3 -25 7 -61 10
-80 3 -19 6 -44 9 -55 2 -11 7 -42 10 -70 7 -47 46 -244 66 -327 5 -21 13 -55
18 -75 44 -186 137 -463 223 -670 62 -151 247 -524 273 -553 8 -9 15 -20 15
-24 0 -10 89 -155 161 -262 107 -159 271 -373 399 -519 66 -75 375 -381 440
-435 36 -30 67 -57 70 -60 55 -55 466 -360 485 -360 3 0 27 -15 53 -33 26 -18
79 -51 117 -74 229 -134 471 -253 700 -343 191 -76 586 -195 740 -224 17 -3
53 -10 80 -16 52 -11 76 -15 135 -25 19 -3 46 -7 60 -10 47 -8 137 -20 235
-30 39 -4 78 -9 87 -11 115 -20 700 -20 878 1 19 2 64 7 100 10 67 7 88 10
155 19 75 12 133 22 240 42 44 8 91 18 105 20 204 39 569 154 830 261 1075
444 1967 1282 2495 2343 51 101 105 218 105 226 0 3 9 24 19 47 86 190 243
686 265 838 3 20 8 42 10 50 3 8 7 30 10 50 3 20 8 42 10 50 8 21 45 284 51
354 3 33 7 71 10 85 23 119 23 749 1 890 -3 14 -7 57 -11 95 -6 64 -38 286
-50 345 -3 14 -8 41 -11 60 -21 122 -123 512 -153 585 -5 11 -28 74 -51 140
-23 66 -50 138 -60 160 -10 22 -30 69 -45 105 -47 111 -152 324 -205 415 -27
49 -50 89 -50 90 0 6 -89 149 -156 250 -297 450 -707 882 -1155 1217 -435 325
-947 585 -1456 738 -235 71 -265 80 -298 86 -16 3 -65 13 -110 24 -44 10 -96
21 -115 24 -19 3 -46 8 -60 10 -62 12 -88 16 -130 22 -25 3 -72 9 -105 14 -33
5 -89 12 -125 15 -36 3 -83 8 -105 11 -45 6 -661 15 -666 10z"/>
</g>
</svg>
